<svg xmlns="http://www.w3.org/2000/svg" xmlns:xlink="http://www.w3.org/1999/xlink" version="1.1" width="1000" height="1000" viewBox="0 0 1000 1000" xml:space="preserve">
<desc>Created with Fabric.js 3.5.0</desc>
<defs>
</defs>
<rect x="0" y="0" width="100%" height="100%" fill="#ffffff"/>
<g transform="matrix(21.1171 0 0 21.1171 500.0001 500.0001)" id="308551">
<path style="stroke: none; stroke-width: 1; stroke-dasharray: none; stroke-linecap: butt; stroke-dashoffset: 0; stroke-linejoin: miter; stroke-miterlimit: 4; is-custom-font: none; font-file-url: none; fill: rgb(204,51,51); fill-rule: nonzero; opacity: 1;" vector-effect="non-scaling-stroke" transform=" translate(-24.01, -23.995)" d="M 36.35 37.67 H 29 s -0.85 -0.56 -0.85 -0.59 a 19.9 19.9 0 0 1 -7.27 0.92 C 18 37.85 15 37.15 13.44 35.47 S 11 31.41 11 28.34 V 11.15 h 9.12 v 14.4 a 8.27 8.27 0 0 0 0.73 3.91 a 2.54 2.54 0 0 0 2.42 1.33 a 3.5 3.5 0 0 0 3.35 -1.85 c 0.67 -1.23 0.74 -3.06 0.74 -6 V 11.14 h 9 V 21.26 l 7.85 0 c -0.42 -5.65 -2 -10.18 -4.92 -13.3 Q 34.16 2.47 24.18 2.47 T 9 8 Q 3.76 13.49 3.76 23.93 T 9 40 q 5.25 5.52 15.09 5.52 T 39.26 40 c 2.7 -2.86 4.36 -7 5 -11.94 H 36.37 v 9.57 h 0 Z" stroke-linecap="round"/>
</g>
</svg>