<svg xmlns="http://www.w3.org/2000/svg" width="48" height="48" viewBox="0 0 48 48"><title>ico_physicians</title><path class="cls-1" d="M24,0A24,24,0,1,0,48,24,24,24,0,0,0,24,0ZM7.22,12.23H15c1.16,0,6.5,4.52,6.5,4.52v3.37l-.65-.67a1,1,0,0,0-1.6.13c-.94,1.34-2,1.64-3.76,1.64C7.2,21.23,7.22,13.51,7.22,12.23ZM15.16,27a4.26,4.26,0,0,1,1.58-3.54c1.37-1.21,3.14-1.28,3.79-.22s0,2.54-1.3,3.49a3.72,3.72,0,0,1-1.41.64,3,3,0,0,0,1.4,1.5,5.71,5.71,0,0,0,.8.41h0a9.84,9.84,0,0,0-2.86,1.5A4.78,4.78,0,0,1,15.16,27Zm15.11,4.36a9.22,9.22,0,0,1-1.81.83,4.53,4.53,0,0,1,2.82,4,3.78,3.78,0,0,1-1.19,2.77l-2.89-1.11c1.1-.55,1.48-.93,1.48-1.66,0-.49-.71-1.23-2.05-1.69l-1.2-.4v3.78s.08,1.49-1.3,1.49-1.3-1.49-1.3-1.49V34l-1.21.4c-1.35.46-2.05,1.2-2.05,1.69,0,.67.32,1.07,1.35,1.59h0l-2.71,1.21A3.87,3.87,0,0,1,17,36.12c0-1.93,1.45-3.57,3.88-4.4l4.1-1.35c3-1,3.36-1.11,4.06-1.53a3,3,0,0,0,1.4-1.5A3.72,3.72,0,0,1,29,26.71c-1.32-1-1.9-2.52-1.3-3.49s2.43-1,3.79.22A4.29,4.29,0,0,1,33.07,27,5,5,0,0,1,30.26,31.34Zm2.28-10.1c-1.76,0-2.63-.3-3.57-1.64a1,1,0,0,0-1.6-.13l-2,2v6.73l-2.6.85V15.33a3.44,3.44,0,1,1,2.6,0v1.81s6.26-4.86,7.8-4.86h7.56C40.78,13.55,40.81,21.23,32.54,21.23Z" fill="#e3f1f9"></path></svg>
